<svg width="24" height="28" viewBox="0 0 24 28" fill="none" xmlns="http://www.w3.org/2000/svg">
<path d="M1.7998 20.0857C1.7998 19.2076 2.45601 18.4656 3.32982 18.3687C9.88761 17.6427 14.1419 17.7082 20.6852 18.3848C21.012 18.4191 21.3217 18.5478 21.5765 18.7553C21.8313 18.9627 22.0201 19.2398 22.12 19.5528C22.2199 19.8658 22.2265 20.2011 22.1389 20.5178C22.0514 20.8345 21.8735 21.1188 21.627 21.336C13.9047 28.0672 9.49151 27.9746 2.34381 21.3428C1.99531 21.0198 1.7998 20.56 1.7998 20.0857Z" fill="#8C8888"/>
<path fill-rule="evenodd" clip-rule="evenodd" d="M20.5977 19.2297C14.1062 18.5582 9.91315 18.4953 3.4225 19.2135C3.20885 19.2384 3.01188 19.3412 2.86932 19.5023C2.72675 19.6634 2.64861 19.8714 2.64985 20.0865C2.64985 20.3296 2.751 20.5599 2.92185 20.7197C6.46467 24.0059 9.14899 25.4908 11.773 25.5002C14.4063 25.5095 17.2351 24.0365 21.0686 20.6959C21.1904 20.5875 21.2781 20.4461 21.321 20.2888C21.3639 20.1315 21.3602 19.9651 21.3103 19.8099C21.2604 19.6547 21.1665 19.5173 21.04 19.4144C20.9135 19.3116 20.7599 19.2468 20.5977 19.2297ZM3.23635 17.5237C9.863 16.7902 14.1793 16.8565 20.7737 17.539C21.2652 17.5903 21.7312 17.7838 22.1144 18.0959C22.4977 18.4079 22.7817 18.8249 22.9316 19.2959C23.0815 19.7668 23.0909 20.2713 22.9585 20.7474C22.8262 21.2236 22.5578 21.6509 22.1864 21.9769C18.2976 25.3667 15.0591 27.2129 11.7679 27.2002C8.46729 27.1883 5.37157 25.3106 1.76669 21.9658C1.50859 21.7254 1.30284 21.4344 1.16229 21.1109C1.02174 20.7874 0.949415 20.4383 0.949834 20.0856C0.948594 19.4519 1.18121 18.84 1.60312 18.3671C2.02503 17.8942 2.60657 17.5945 3.23635 17.5237Z" fill="#8C8888"/>
<path d="M18.7999 6.80005C18.7999 8.60353 18.0835 10.3332 16.8082 11.6084C15.533 12.8837 13.8034 13.6001 11.9999 13.6001C10.1964 13.6001 8.46677 12.8837 7.19152 11.6084C5.91626 10.3332 5.19983 8.60353 5.19983 6.80005C5.19983 4.99656 5.91626 3.26694 7.19152 1.99169C8.46677 0.716431 10.1964 0 11.9999 0C13.8034 0 15.533 0.716431 16.8082 1.99169C18.0835 3.26694 18.7999 4.99656 18.7999 6.80005Z" fill="#8C8888"/>
<path fill-rule="evenodd" clip-rule="evenodd" d="M11.9999 11.9001C13.3525 11.9001 14.6497 11.3628 15.6061 10.4063C16.5626 9.44988 17.0999 8.15266 17.0999 6.80005C17.0999 5.44743 16.5626 4.15022 15.6061 3.19378C14.6497 2.23734 13.3525 1.70001 11.9999 1.70001C10.6473 1.70001 9.35005 2.23734 8.39361 3.19378C7.43716 4.15022 6.89984 5.44743 6.89984 6.80005C6.89984 8.15266 7.43716 9.44988 8.39361 10.4063C9.35005 11.3628 10.6473 11.9001 11.9999 11.9001ZM11.9999 13.6001C13.8034 13.6001 15.533 12.8837 16.8082 11.6084C18.0835 10.3332 18.7999 8.60353 18.7999 6.80005C18.7999 4.99656 18.0835 3.26694 16.8082 1.99169C15.533 0.716431 13.8034 0 11.9999 0C10.1964 0 8.46677 0.716431 7.19152 1.99169C5.91626 3.26694 5.19983 4.99656 5.19983 6.80005C5.19983 8.60353 5.91626 10.3332 7.19152 11.6084C8.46677 12.8837 10.1964 13.6001 11.9999 13.6001Z" fill="#8C8888"/>
</svg>
