<svg width="23" height="24" viewBox="0 0 23 24" fill="none" xmlns="http://www.w3.org/2000/svg">
<path d="M12.5277 17.7765C13.8241 20.5692 10.9914 23.242 10.9914 23.242C10.9914 23.242 8.3186 20.4093 9.77491 17.6965" stroke="#8C8888" stroke-width="1.2" stroke-linecap="round" stroke-linejoin="round"/>
<path d="M14.2243 6.80575L13.9845 15.064L8.47895 14.9042L8.71874 6.64589C8.80954 3.51882 10.4333 2.01638 11.216 1.47132C11.3366 1.38738 11.4808 1.34437 11.6276 1.34863C11.7744 1.3529 11.916 1.4042 12.0314 1.49499C12.7812 2.08456 14.3151 3.67868 14.2243 6.80575Z" stroke="#8C8888" stroke-width="1.2" stroke-linecap="round" stroke-linejoin="round"/>
<path d="M14.1834 8.18191L17.997 12.2235C18.059 12.2893 18.1075 12.3666 18.1397 12.4511C18.1718 12.5356 18.187 12.6256 18.1844 12.716L18.0702 16.6506C18.0666 16.7751 18.0292 16.8964 17.9621 17.0014C17.895 17.1064 17.8006 17.1912 17.6891 17.2468C17.5776 17.3024 17.453 17.3266 17.3288 17.317C17.2046 17.3074 17.0853 17.2642 16.9836 17.1921L13.9836 15.0638" stroke="#8C8888" stroke-width="1.2" stroke-linecap="round" stroke-linejoin="round"/>
<path d="M8.67811 8.02206L4.63649 11.8356C4.57073 11.8977 4.51784 11.972 4.48083 12.0545C4.44382 12.137 4.42342 12.226 4.42079 12.3164L4.30655 16.2509C4.30293 16.3755 4.33319 16.4987 4.3941 16.6074C4.45501 16.7162 4.54428 16.8063 4.6524 16.8683C4.76051 16.9302 4.88342 16.9617 5.00801 16.9593C5.1326 16.9569 5.25421 16.9207 5.35986 16.8546L8.47829 14.904" stroke="#8C8888" stroke-width="1.2" stroke-linecap="round" stroke-linejoin="round"/>
</svg>
