<svg width="16" height="17" viewBox="0 0 16 17" fill="none" xmlns="http://www.w3.org/2000/svg">
<path d="M5.375 5.99316H10.375" stroke="#8C8888" stroke-width="1.4" stroke-linecap="round" stroke-linejoin="round"/>
<path d="M5.375 8.49316H10.375" stroke="#8C8888" stroke-width="1.4" stroke-linecap="round" stroke-linejoin="round"/>
<path d="M5.375 10.9932H7.875" stroke="#8C8888" stroke-width="1.4" stroke-linecap="round" stroke-linejoin="round"/>
<path d="M10.1161 15.3682H1.625C1.45924 15.3682 1.30027 15.3023 1.18306 15.1851C1.06585 15.0679 1 14.9089 1 14.7432V2.24316C1 2.0774 1.06585 1.91843 1.18306 1.80122C1.30027 1.68401 1.45924 1.61816 1.625 1.61816H14.125C14.2908 1.61816 14.4497 1.68401 14.5669 1.80122C14.6842 1.91843 14.75 2.0774 14.75 2.24316V10.7343C14.75 10.8164 14.7338 10.8976 14.7024 10.9735C14.671 11.0493 14.625 11.1182 14.5669 11.1762L10.5581 15.1851C10.5 15.2431 10.4311 15.2892 10.3553 15.3206C10.2795 15.352 10.1982 15.3682 10.1161 15.3682V15.3682Z" stroke="#8C8888" stroke-width="1.4" stroke-linecap="round" stroke-linejoin="round"/>
<path d="M14.6934 10.9927H10.375V15.3114" stroke="#8C8888" stroke-width="1.4" stroke-linecap="round" stroke-linejoin="round"/>
</svg>
